<svg width="32" height="32" viewBox="0 0 32 32" fill="none" xmlns="http://www.w3.org/2000/svg">
<path d="M21.3333 10.6667C23.4551 10.6667 25.4899 11.5095 26.9902 13.0098C28.4905 14.5101 29.3333 16.5449 29.3333 18.6667V28H24V18.6667C24 17.9594 23.7191 17.2812 23.219 16.7811C22.7189 16.281 22.0406 16 21.3333 16C20.6261 16 19.9478 16.281 19.4477 16.7811C18.9476 17.2812 18.6667 17.9594 18.6667 18.6667V28H13.3333V18.6667C13.3333 16.5449 14.1762 14.5101 15.6765 13.0098C17.1768 11.5095 19.2116 10.6667 21.3333 10.6667V10.6667Z" stroke="#323D70" stroke-width="2" stroke-linecap="round" stroke-linejoin="round"/>
<path d="M7.99999 12H2.66666V28H7.99999V12Z" stroke="#323D70" stroke-width="2" stroke-linecap="round" stroke-linejoin="round"/>
<path d="M5.33332 8C6.80608 8 7.99999 6.8061 7.99999 5.33334C7.99999 3.86058 6.80608 2.66667 5.33332 2.66667C3.86056 2.66667 2.66666 3.86058 2.66666 5.33334C2.66666 6.8061 3.86056 8 5.33332 8Z" stroke="#323D70" stroke-width="2" stroke-linecap="round" stroke-linejoin="round"/>
</svg>
